<svg style="display: none;" aria-hidden="true" xmlns="http://www.w3.org/2000/svg" xmlns:xlink="http://www.w3.org/1999/xlink"><symbol viewBox="0 0 512 512" id="svg-check"><path d="M173.898 439.404l-166.4-166.4c-9.997-9.997-9.997-26.206 0-36.204l36.203-36.204c9.997-9.998 26.207-9.998 36.204 0L192 312.69 432.095 72.596c9.997-9.997 26.207-9.997 36.204 0l36.203 36.204c9.997 9.997 9.997 26.206 0 36.204l-294.4 294.401c-9.998 9.997-26.207 9.997-36.204-.001z"/></symbol><symbol viewBox="0 0 18 18" id="svg-close"><defs><path id="ba" d="M691.485 160.07l-1.414 1.415-7.071-7.071-7.071 7.071-1.414-1.414 7.07-7.071-7.07-7.071 1.414-1.415 7.07 7.071 7.072-7.07 1.414 1.414-7.07 7.07z"/></defs><use xlink:href="#ba" transform="translate(-674 -144)"/></symbol><symbol viewBox="0 0 665.42 665.42" id="svg-eye"><defs><radialGradient id="cd" cx=".715" cy=".223" r="1.402"><stop stop-color="#1500ff" stop-opacity=".996" offset="0"/><stop stop-color="#add2f7" stop-opacity=".988" offset="1"/></radialGradient><radialGradient id="cc" cx="358.25" cy="321.23" r="17.015" gradientTransform="matrix(14.547 54.39 -87.261 23.339 23382 -25913)" gradientUnits="userSpaceOnUse"><stop stop-color="#00a1ff" offset="0"/><stop stop-color="#000001" offset="1"/></radialGradient><radialGradient id="ca" cx="349.34" cy="312.65" r="17.015" gradientTransform="matrix(21.854 127.83 -141.93 24.264 36862 -52354)" gradientUnits="userSpaceOnUse"><stop offset="0"/><stop stop-opacity="0" offset="1"/></radialGradient><filter id="cb" x="-.116" y="-.118" width="1.232" height="1.235"><feGaussianBlur stdDeviation="1.642"/></filter><filter id="ce" x="-.218" y="-.227" width="1.436" height="1.453"><feGaussianBlur stdDeviation=".62"/></filter></defs><g stroke="#000"><g stroke-linecap="round"><path d="m657.49 413.03a322.8 322.8 0 1 1 -645.59 -160.68 322.8 322.8 0 1 1 645.59 160.68z" fill="#fff" stroke="none"/><g stroke-width="1.2"><path d="m490.43 367.91a163.35 160.84 0 1 1 -326.7 -81.311 163.35 160.84 0 1 1 326.7 81.311z" fill="#fff"/><path d="m475.96 366.29a146.08 143.84 0 1 1 -292.17 -72.716 146.08 143.84 0 1 1 292.17 72.716z" fill="url(#ca)" filter="url(#cb)"/><path d="m475.96 366.29a146.08 143.84 0 1 1 -292.17 -72.716 146.08 143.84 0 1 1 292.17 72.716z" fill="url(#cc)" filter="url(#cb)"/><path d="m475.96 366.29a146.08 143.84 0 1 1 -292.17 -72.716 146.08 143.84 0 1 1 292.17 72.716z" fill="url(#cd)" filter="url(#cb)"/><path d="m413.02 346.92a73.772 73.772 0 1 1 -147.54 -36.721 73.772 73.772 0 1 1 147.54 36.721z"/></g></g><path d="m245.45 163.02c-144.49 71.976-202.64 210.61-202.64 210.61 19.036-27.742 41.988-52.269 66.709-73.841-38.053 59.473-55.119 115.31-55.119 115.31l-27.167 36.058c3.2627 9.1054 37.198 24.321 48.224-8.8729 111.91-336.89 362.82-253.56 456.24-208.43 0.10828 0.052277 0.47302 0.40988 0.58093 0.4621 0.92017 0.98264 9.3126 3.8781 22.985 11.645-2.3036 20.326-13.932 141.34-110.71 226.45-61.486 54.068-187.26 54.206-290.44 50.087 0 0 130.22 25.781 246.5-9.1611 136.06-40.888 181.01-209.37 185.83-261.73 3.7057-1.4086 6.5532-3.3211 6.4824-3.3796-0.11316-0.093933 62.062-33.013 39.11-43.44-46.558-21.151-88.202-35.985-126.88-45.35-16.294-3.9454-31.865-6.6872-47.275-8.7735 55.205-10.07 93.773-13.468 96.965-15.058-0.17651-0.072617-0.18835-0.39474-0.58093-0.46211-5.5529-0.95262-41.506-10.736-97.925-13.782-84.628-4.5694-154.35 13.497-210.89 41.662z" fill-rule="evenodd" stroke-width="1.062"/><path d="m415.62 290.34a35.572 34.254 0 1 1 -71.144 -17.707 35.572 34.254 0 1 1 71.144 17.707z" fill="#fff" filter="url(#ce)" stroke="none"/></g></symbol><symbol viewBox="0 0 512 512" id="svg-facebook"><path d="M504 256C504 119 393 8 256 8S8 119 8 256c0 123.78 90.69 226.38 209.25 245V327.69h-63V256h63v-54.64c0-62.15 37-96.48 93.67-96.48 27.14 0 55.52 4.84 55.52 4.84v61h-31.28c-30.8 0-40.41 19.12-40.41 38.73V256h68.78l-11 71.69h-57.78V501C413.31 482.38 504 379.78 504 256z"/></symbol><symbol viewBox="0 0 448 512" id="svg-facebook-square"><path d="M400 32H48A48 48 0 0 0 0 80v352a48 48 0 0 0 48 48h137.25V327.69h-63V256h63v-54.64c0-62.15 37-96.48 93.67-96.48 27.14 0 55.52 4.84 55.52 4.84v61h-31.27c-30.81 0-40.42 19.12-40.42 38.73V256h68.78l-11 71.69h-57.78V480H400a48 48 0 0 0 48-48V80a48 48 0 0 0-48-48z"/></symbol><symbol viewBox="0 0 448 512" id="svg-instagram"><path d="M224.1 141c-63.6 0-114.9 51.3-114.9 114.9s51.3 114.9 114.9 114.9S339 319.5 339 255.9 287.7 141 224.1 141zm0 189.6c-41.1 0-74.7-33.5-74.7-74.7s33.5-74.7 74.7-74.7 74.7 33.5 74.7 74.7-33.6 74.7-74.7 74.7zm146.4-194.3c0 14.9-12 26.8-26.8 26.8-14.9 0-26.8-12-26.8-26.8s12-26.8 26.8-26.8 26.8 12 26.8 26.8zm76.1 27.2c-1.7-35.9-9.9-67.7-36.2-93.9-26.2-26.2-58-34.4-93.9-36.2-37-2.1-147.9-2.1-184.9 0-35.8 1.7-67.6 9.9-93.9 36.1s-34.4 58-36.2 93.9c-2.1 37-2.1 147.9 0 184.9 1.7 35.9 9.9 67.7 36.2 93.9s58 34.4 93.9 36.2c37 2.1 147.9 2.1 184.9 0 35.9-1.7 67.7-9.9 93.9-36.2 26.2-26.2 34.4-58 36.2-93.9 2.1-37 2.1-147.8 0-184.8zM398.8 388c-7.8 19.6-22.9 34.7-42.6 42.6-29.5 11.7-99.5 9-132.1 9s-102.7 2.6-132.1-9c-19.6-7.8-34.7-22.9-42.6-42.6-11.7-29.5-9-99.5-9-132.1s-2.6-102.7 9-132.1c7.8-19.6 22.9-34.7 42.6-42.6 29.5-11.7 99.5-9 132.1-9s102.7-2.6 132.1 9c19.6 7.8 34.7 22.9 42.6 42.6 11.7 29.5 9 99.5 9 132.1s2.7 102.7-9 132.1z"/></symbol><symbol viewBox="0 0 793.707 1122.52" id="svg-lash"><path d="m 0,0 9.608,-9.224 -1.927,7.471 c 0,0 11.808,-6.748 22.895,-7.471 -4.579,3.615 -10.604,7.953 -10.604,7.953 0,0 16.388,-7.953 33.982,-6.025 -5.784,2.169 -12.171,1.446 -17.715,9.158 13.015,-5.784 35.308,-3.856 35.308,-3.856 0,0 -16.629,2.651 -22.413,6.266 15.183,-1.446 27.716,2.411 31.331,6.025 -9.882,-1.927 -18.318,-0.722 -24.342,0 13.737,0 24.101,4.098 30.607,11.81 -5.301,-2.169 -14.701,-7.953 -32.053,-5.302 -5.302,1.205 -6.989,5.302 -6.989,5.302 0,0 -5.062,6.748 -9.881,7.712 C 42.145,24.758 48.41,18.974 44.313,12.949 40.376,7.158 27.98,0.033 0.925,2.053 -0.195,2.136 -0.811,0.778 0,0" fill="#a35565" transform="matrix(1.33333 0 0 -1.33333 451.984 422.634)"/><path d="m 0,0 c -0.097,-0.265 0.282,-0.435 0.413,-0.186 2.822,5.35 10.068,15.688 24.402,17.055 19.457,1.854 26.463,-0.39 28.739,-0.617 2.698,-0.268 9.326,3.83 4.003,7.421 -5.487,3.702 -30.431,2.278 -36.086,1.981 -0.768,-0.04 -1.497,-0.314 -2.1,-0.791 C 16.006,22.196 4.557,12.456 0,0" fill="#a35565" transform="matrix(1.33333 0 0 -1.33333 436.548 389.245)"/></symbol><symbol viewBox="0 0 13 24" id="svg-p-left"><path fill-rule="evenodd" fill="#fff" d="M1.453,12.000 L12.988,23.284 L12.267,23.989 L0.732,12.705 L0.011,12.000 L0.732,11.295 L12.267,0.010 L12.988,0.715 L1.453,12.000 Z"/></symbol><symbol fill="#fff" viewBox="0 0 14 25" id="svg-p-right"><path fill-rule="evenodd" d="M12.107,12.500 L0.793,1.186 L1.500,0.479 L12.814,11.793 L13.521,12.500 L12.814,13.207 L1.500,24.521 L0.793,23.814 L12.107,12.500 Z"/></symbol><symbol viewBox="0 0 512 512" id="svg-phone"><path d="M493.4 24.6l-104-24c-11.3-2.6-22.9 3.3-27.5 13.9l-48 112c-4.2 9.8-1.4 21.3 6.9 28l60.6 49.6c-36 76.7-98.9 140.5-177.2 177.2l-49.6-60.6c-6.8-8.3-18.2-11.1-28-6.9l-112 48C3.9 366.5-2 378.1.6 389.4l24 104C27.1 504.2 36.7 512 48 512c256.1 0 464-207.5 464-464 0-11.2-7.7-20.9-18.6-23.4z"/></symbol><symbol viewBox="0 0 17 23" fill="none" id="svg-rub"><path d="M1 9.16667H2.15385V1H10.8077C13.6923 1 16 3.33333 16 6.25C16 9.16667 13.6923 11.5 10.8077 11.5H4.46154V13.8333H11.3846V16.1667H4.46154V22H2.15385V16.1667H1V13.8333H2.15385V11.5H1V9.16667ZM10.8077 3.33333H4.46154V9.16667H10.8077C11.5727 9.16667 12.3065 8.85938 12.8474 8.31239C13.3884 7.76541 13.6923 7.02355 13.6923 6.25C13.6923 5.47645 13.3884 4.73459 12.8474 4.18761C12.3065 3.64062 11.5727 3.33333 10.8077 3.33333Z" fill="#000" stroke="#000"/></symbol><symbol viewBox="0 0 448 512" id="svg-telegram-plane"><path d="M446.7 98.6l-67.6 318.8c-5.1 22.5-18.4 28.1-37.3 17.5l-103-75.9-49.7 47.8c-5.5 5.5-10.1 10.1-20.7 10.1l7.4-104.9 190.9-172.5c8.3-7.4-1.8-11.5-12.9-4.1L117.8 284 16.2 252.2c-22.1-6.9-22.5-22.1 4.6-32.7L418.2 66.4c18.4-6.9 34.5 4.1 28.5 32.2z"/></symbol><symbol viewBox="0 0 512 512" id="svg-twitter"><path d="M459.37 151.716c.325 4.548.325 9.097.325 13.645 0 138.72-105.583 298.558-298.558 298.558-59.452 0-114.68-17.219-161.137-47.106 8.447.974 16.568 1.299 25.34 1.299 49.055 0 94.213-16.568 130.274-44.832-46.132-.975-84.792-31.188-98.112-72.772 6.498.974 12.995 1.624 19.818 1.624 9.421 0 18.843-1.3 27.614-3.573-48.081-9.747-84.143-51.98-84.143-102.985v-1.299c13.969 7.797 30.214 12.67 47.431 13.319-28.264-18.843-46.781-51.005-46.781-87.391 0-19.492 5.197-37.36 14.294-52.954 51.655 63.675 129.3 105.258 216.365 109.807-1.624-7.797-2.599-15.918-2.599-24.04 0-57.828 46.782-104.934 104.934-104.934 30.213 0 57.502 12.67 76.67 33.137 23.715-4.548 46.456-13.32 66.599-25.34-7.798 24.366-24.366 44.833-46.132 57.827 21.117-2.273 41.584-8.122 60.426-16.243-14.292 20.791-32.161 39.308-52.628 54.253z"/></symbol><symbol viewBox="0 0 448 512" id="svg-twitter-square"><path d="M400 32H48C21.5 32 0 53.5 0 80v352c0 26.5 21.5 48 48 48h352c26.5 0 48-21.5 48-48V80c0-26.5-21.5-48-48-48zm-48.9 158.8c.2 2.8.2 5.7.2 8.5 0 86.7-66 186.6-186.6 186.6-37.2 0-71.7-10.8-100.7-29.4 5.3.6 10.4.8 15.8.8 30.7 0 58.9-10.4 81.4-28-28.8-.6-53-19.5-61.3-45.5 10.1 1.5 19.2 1.5 29.6-1.2-30-6.1-52.5-32.5-52.5-64.4v-.8c8.7 4.9 18.9 7.9 29.6 8.3a65.447 65.447 0 0 1-29.2-54.6c0-12.2 3.2-23.4 8.9-33.1 32.3 39.8 80.8 65.8 135.2 68.6-9.3-44.5 24-80.6 64-80.6 18.9 0 35.9 7.9 47.9 20.7 14.8-2.8 29-8.3 41.6-15.8-4.9 15.2-15.2 28-28.8 36.1 13.2-1.4 26-5.1 37.8-10.2-8.9 13.1-20.1 24.7-32.9 34z"/></symbol><symbol viewBox="0 0 512 512" id="svg-viber"><path d="M444 49.9C431.3 38.2 379.9.9 265.3.4c0 0-135.1-8.1-200.9 52.3C27.8 89.3 14.9 143 13.5 209.5c-1.4 66.5-3.1 191.1 117 224.9h.1l-.1 51.6s-.8 20.9 13 25.1c16.6 5.2 26.4-10.7 42.3-27.8 8.7-9.4 20.7-23.2 29.8-33.7 82.2 6.9 145.3-8.9 152.5-11.2 16.6-5.4 110.5-17.4 125.7-142 15.8-128.6-7.6-209.8-49.8-246.5zM457.9 287c-12.9 104-89 110.6-103 115.1-6 1.9-61.5 15.7-131.2 11.2 0 0-52 62.7-68.2 79-5.3 5.3-11.1 4.8-11-5.7 0-6.9.4-85.7.4-85.7-.1 0-.1 0 0 0-101.8-28.2-95.8-134.3-94.7-189.8 1.1-55.5 11.6-101 42.6-131.6 55.7-50.5 170.4-43 170.4-43 96.9.4 143.3 29.6 154.1 39.4 35.7 30.6 53.9 103.8 40.6 211.1zm-139-80.8c.4 8.6-12.5 9.2-12.9.6-1.1-22-11.4-32.7-32.6-33.9-8.6-.5-7.8-13.4.7-12.9 27.9 1.5 43.4 17.5 44.8 46.2zm20.3 11.3c1-42.4-25.5-75.6-75.8-79.3-8.5-.6-7.6-13.5.9-12.9 58 4.2 88.9 44.1 87.8 92.5-.1 8.6-13.1 8.2-12.9-.3zm47 13.4c.1 8.6-12.9 8.7-12.9.1-.6-81.5-54.9-125.9-120.8-126.4-8.5-.1-8.5-12.9 0-12.9 73.7.5 133 51.4 133.7 139.2zM374.9 329v.2c-10.8 19-31 40-51.8 33.3l-.2-.3c-21.1-5.9-70.8-31.5-102.2-56.5-16.2-12.8-31-27.9-42.4-42.4-10.3-12.9-20.7-28.2-30.8-46.6-21.3-38.5-26-55.7-26-55.7-6.7-20.8 14.2-41 33.3-51.8h.2c9.2-4.8 18-3.2 23.9 3.9 0 0 12.4 14.8 17.7 22.1 5 6.8 11.7 17.7 15.2 23.8 6.1 10.9 2.3 22-3.7 26.6l-12 9.6c-6.1 4.9-5.3 14-5.3 14s17.8 67.3 84.3 84.3c0 0 9.1.8 14-5.3l9.6-12c4.6-6 15.7-9.8 26.6-3.7 14.7 8.3 33.4 21.2 45.8 32.9 7 5.7 8.6 14.4 3.8 23.6z"/></symbol><symbol viewBox="0 0 576 512" id="svg-vk"><path d="M545 117.7c3.7-12.5 0-21.7-17.8-21.7h-58.9c-15 0-21.9 7.9-25.6 16.7 0 0-30 73.1-72.4 120.5-13.7 13.7-20 18.1-27.5 18.1-3.7 0-9.4-4.4-9.4-16.9V117.7c0-15-4.2-21.7-16.6-21.7h-92.6c-9.4 0-15 7-15 13.5 0 14.2 21.2 17.5 23.4 57.5v86.8c0 19-3.4 22.5-10.9 22.5-20 0-68.6-73.4-97.4-157.4-5.8-16.3-11.5-22.9-26.6-22.9H38.8c-16.8 0-20.2 7.9-20.2 16.7 0 15.6 20 93.1 93.1 195.5C160.4 378.1 229 416 291.4 416c37.5 0 42.1-8.4 42.1-22.9 0-66.8-3.4-73.1 15.4-73.1 8.7 0 23.7 4.4 58.7 38.1 40 40 46.6 57.9 69 57.9h58.9c16.8 0 25.3-8.4 20.4-25-11.2-34.9-86.9-106.7-90.3-111.5-8.7-11.2-6.2-16.2 0-26.2.1-.1 72-101.3 79.4-135.6z"/></symbol><symbol viewBox="0 0 448 512" id="svg-whatsapp"><path d="M380.9 97.1C339 55.1 283.2 32 223.9 32c-122.4 0-222 99.6-222 222 0 39.1 10.2 77.3 29.6 111L0 480l117.7-30.9c32.4 17.7 68.9 27 106.1 27h.1c122.3 0 224.1-99.6 224.1-222 0-59.3-25.2-115-67.1-157zm-157 341.6c-33.2 0-65.7-8.9-94-25.7l-6.7-4-69.8 18.3L72 359.2l-4.4-7c-18.5-29.4-28.2-63.3-28.2-98.2 0-101.7 82.8-184.5 184.6-184.5 49.3 0 95.6 19.2 130.4 54.1 34.8 34.9 56.2 81.2 56.1 130.5 0 101.8-84.9 184.6-186.6 184.6zm101.2-138.2c-5.5-2.8-32.8-16.2-37.9-18-5.1-1.9-8.8-2.8-12.5 2.8-3.7 5.6-14.3 18-17.6 21.8-3.2 3.7-6.5 4.2-12 1.4-32.6-16.3-54-29.1-75.5-66-5.7-9.8 5.7-9.1 16.3-30.3 1.8-3.7.9-6.9-.5-9.7-1.4-2.8-12.5-30.1-17.1-41.2-4.5-10.8-9.1-9.3-12.5-9.5-3.2-.2-6.9-.2-10.6-.2-3.7 0-9.7 1.4-14.8 6.9-5.1 5.6-19.4 19-19.4 46.3 0 27.3 19.9 53.7 22.6 57.4 2.8 3.7 39.1 59.7 94.8 83.8 35.2 15.2 49 16.5 66.6 13.9 10.7-1.6 32.8-13.4 37.4-26.4 4.6-13 4.6-24.1 3.2-26.4-1.3-2.5-5-3.9-10.5-6.6z"/></symbol><symbol viewBox="0 0 448 512" id="svg-whatsapp-square"><path d="M224 122.8c-72.7 0-131.8 59.1-131.9 131.8 0 24.9 7 49.2 20.2 70.1l3.1 5-13.3 48.6 49.9-13.1 4.8 2.9c20.2 12 43.4 18.4 67.1 18.4h.1c72.6 0 133.3-59.1 133.3-131.8 0-35.2-15.2-68.3-40.1-93.2-25-25-58-38.7-93.2-38.7zm77.5 188.4c-3.3 9.3-19.1 17.7-26.7 18.8-12.6 1.9-22.4.9-47.5-9.9-39.7-17.2-65.7-57.2-67.7-59.8-2-2.6-16.2-21.5-16.2-41s10.2-29.1 13.9-33.1c3.6-4 7.9-5 10.6-5 2.6 0 5.3 0 7.6.1 2.4.1 5.7-.9 8.9 6.8 3.3 7.9 11.2 27.4 12.2 29.4s1.7 4.3.3 6.9c-7.6 15.2-15.7 14.6-11.6 21.6 15.3 26.3 30.6 35.4 53.9 47.1 4 2 6.3 1.7 8.6-1 2.3-2.6 9.9-11.6 12.5-15.5 2.6-4 5.3-3.3 8.9-2 3.6 1.3 23.1 10.9 27.1 12.9s6.6 3 7.6 4.6c.9 1.9.9 9.9-2.4 19.1zM400 32H48C21.5 32 0 53.5 0 80v352c0 26.5 21.5 48 48 48h352c26.5 0 48-21.5 48-48V80c0-26.5-21.5-48-48-48zM223.9 413.2c-26.6 0-52.7-6.7-75.8-19.3L64 416l22.5-82.2c-13.9-24-21.2-51.3-21.2-79.3C65.4 167.1 136.5 96 223.9 96c42.4 0 82.2 16.5 112.2 46.5 29.9 30 47.9 69.8 47.9 112.2 0 87.4-72.7 158.5-160.1 158.5z"/></symbol><symbol viewBox="0 0 793.707 1122.52" id="svg-woman"><defs><clipPath id="sa" clipPathUnits="userSpaceOnUse"><path d="M 0,841.89 H 595.28 V 0 H 0 Z"/></clipPath></defs><g clip-path="url(#sa)" transform="matrix(1.33333 0 0 -1.33333 0 1122.52)"><path d="m 0,0 9.608,-9.224 -1.927,7.471 c 0,0 11.808,-6.748 22.895,-7.471 -4.579,3.615 -10.604,7.953 -10.604,7.953 0,0 16.388,-7.953 33.982,-6.025 -5.784,2.169 -12.171,1.446 -17.715,9.158 13.015,-5.784 35.308,-3.856 35.308,-3.856 0,0 -16.629,2.651 -22.413,6.266 15.183,-1.446 27.716,2.411 31.331,6.025 -9.882,-1.927 -18.318,-0.722 -24.342,0 13.737,0 24.101,4.098 30.607,11.81 -5.301,-2.169 -14.701,-7.953 -32.053,-5.302 -5.302,1.205 -6.989,5.302 -6.989,5.302 0,0 -5.062,6.748 -9.881,7.712 C 42.145,24.758 48.41,18.974 44.313,12.949 40.376,7.158 27.98,0.033 0.925,2.053 -0.195,2.136 -0.811,0.778 0,0" fill="#a35565" transform="translate(338.988 524.915)"/><path d="m 0,0 c 0,0 5.062,-1.928 8.917,1.446 3.856,3.374 18.317,20.727 18.317,20.727 0,0 8.435,9.881 8.195,-2.169 C 35.188,7.954 28.68,7.23 28.68,7.23 c 0,0 16.147,0.724 12.05,-12.291 -4.097,-13.014 -20.032,-5.784 -20.032,-5.784 0,0 11.356,1.928 9.91,5.543 C 29.162,-1.687 21.69,1.446 14.942,-2.41 8.194,-6.266 5.303,-5.061 0,0" fill="#a35565" transform="translate(410.776 455.92)"/><path d="m 0,0 c -0.097,-0.265 0.282,-0.435 0.413,-0.186 2.822,5.35 10.068,15.688 24.402,17.055 19.457,1.854 26.463,-0.39 28.739,-0.617 2.698,-0.268 9.326,3.83 4.003,7.421 -5.487,3.702 -30.431,2.278 -36.086,1.981 -0.768,-0.04 -1.497,-0.314 -2.1,-0.791 C 16.006,22.196 4.557,12.456 0,0" fill="#a35565" transform="translate(327.411 549.956)"/><path d="m 0,0 c 0,0 -10.604,-4.579 -12.291,-8.436 -1.687,-3.856 1.687,-6.266 3.615,-5.061 C -6.748,-12.292 -11.568,-9.158 0,0" fill="#a35565" transform="translate(437.046 508.942)"/><path d="M 0,0 C -1.035,0.394 -1.939,-0.848 -1.215,-1.685 0.176,-3.293 1.888,-6.05 3.892,-10.7 9.917,-24.679 15.942,-48.779 8.229,-72.639 0.518,-96.499 -6.954,-116.984 -6.954,-116.984 l 42.659,71.579 c 0,0 7.23,14.461 31.33,20.968 7.713,2.41 54.709,17.352 57.842,23.859 C 120.319,-2.497 32.893,-32.573 3.275,-2.127 2.413,-1.241 1.518,-0.576 0,0" fill="#a35565" transform="translate(316.748 422.998)"/><path d="m 0,0 c 0,0 -23.859,-67.964 22.414,-102.669 46.274,-34.706 -10.122,-101.224 -52.781,-136.651 -42.658,-35.429 -73.025,-49.166 -76.786,-87.975 -1.597,-16.476 13.16,-68.922 55.096,-56.63 -9.4,-7.23 -43.735,-15.913 -69.41,7.953 15.327,-19.121 35.428,-44.104 76.64,-44.104 -19.522,-6.052 -109.176,-11.569 -107.007,65.795 2.169,77.363 82.424,109.899 82.424,109.899 0,0 -133.036,-29.643 -103.392,-168.464 -22.414,9.4 -27.445,85.317 2.169,133.759 -30.367,-14.46 -37.597,-91.824 -37.597,-91.824 0,0 -42.659,99.777 15.184,150.39 57.841,50.611 130.866,39.283 146.05,108.211 -33.018,-35.91 -82.961,-57.217 -109.176,-67.723 -22.957,-9.199 -64.108,-29.684 -73.749,-91.823 -5.061,62.139 -1.446,159.064 99.054,183.647 -37.597,9.858 -92.547,-57.884 -92.547,-57.884 0,0 66.76,146.093 223.414,146.093" fill="#a35565" transform="translate(307.384 628)"/><path d="m 0,0 c 0,0 -24.101,-66.036 32.295,-94.476 56.396,-28.438 19.04,-75.194 19.04,-75.194 0,0 54.769,41.688 5.061,74.713 C 21.209,-71.58 -3.374,-54.95 0,0" fill="#a35565" transform="translate(270.75 371.086)"/><path d="m 0,0 c 0,0 -12.051,-33.019 16.147,-47.238 27.1,-13.665 10.619,-36.223 9.52,-37.597 0,0 27.385,20.844 2.53,37.356 C 10.604,-35.79 -1.687,-27.476 0,0" fill="#a35565" transform="translate(271.776 300.705)"/></g></symbol><symbol viewBox="0 0 576 512" id="svg-youtube"><path d="M549.655 124.083c-6.281-23.65-24.787-42.276-48.284-48.597C458.781 64 288 64 288 64S117.22 64 74.629 75.486c-23.497 6.322-42.003 24.947-48.284 48.597-11.412 42.867-11.412 132.305-11.412 132.305s0 89.438 11.412 132.305c6.281 23.65 24.787 41.5 48.284 47.821C117.22 448 288 448 288 448s170.78 0 213.371-11.486c23.497-6.321 42.003-24.171 48.284-47.821 11.412-42.867 11.412-132.305 11.412-132.305s0-89.438-11.412-132.305zm-317.51 213.508V175.185l142.739 81.205-142.739 81.201z"/></symbol><symbol viewBox="0 0 448 512" id="svg-youtube-square"><path d="M186.8 202.1l95.2 54.1-95.2 54.1V202.1zM448 80v352c0 26.5-21.5 48-48 48H48c-26.5 0-48-21.5-48-48V80c0-26.5 21.5-48 48-48h352c26.5 0 48 21.5 48 48zm-42 176.3s0-59.6-7.6-88.2c-4.2-15.8-16.5-28.2-32.2-32.4C337.9 128 224 128 224 128s-113.9 0-142.2 7.7c-15.7 4.2-28 16.6-32.2 32.4-7.6 28.5-7.6 88.2-7.6 88.2s0 59.6 7.6 88.2c4.2 15.8 16.5 27.7 32.2 31.9C110.1 384 224 384 224 384s113.9 0 142.2-7.7c15.7-4.2 28-16.1 32.2-31.9 7.6-28.5 7.6-88.1 7.6-88.1z"/></symbol></svg>