<?xml version="1.0" encoding="UTF-8" standalone="no"?>
<svg
   xmlns:dc="http://purl.org/dc/elements/1.1/"
   xmlns:cc="http://creativecommons.org/ns#"
   xmlns:rdf="http://www.w3.org/1999/02/22-rdf-syntax-ns#"
   xmlns:svg="http://www.w3.org/2000/svg"
   xmlns="http://www.w3.org/2000/svg"
   viewBox="0 0 793.70667 1122.52"
   height="1122.52"
   width="793.70667"
   xml:space="preserve"
   id="svg2"
   version="1.1"><metadata
     id="metadata8"><rdf:RDF><cc:Work
         rdf:about=""><dc:format>image/svg+xml</dc:format><dc:type
           rdf:resource="http://purl.org/dc/dcmitype/StillImage" /></cc:Work></rdf:RDF></metadata><defs
     id="defs6"><clipPath
       id="clipPath18"
       clipPathUnits="userSpaceOnUse"><path
         id="path16"
         d="M 0,841.89 H 595.28 V 0 H 0 Z" /></clipPath></defs><g
     transform="matrix(1.3333333,0,0,-1.3333333,0,1122.52)"
     id="g10"><g
       id="g12"><g
         clip-path="url(#clipPath18)"
         id="g14"><g
           transform="translate(338.9883,524.9146)"
           id="g20"><path
             id="path22"
             style="fill:#a35565;fill-opacity:1;fill-rule:nonzero;stroke:none"
             d="m 0,0 9.608,-9.224 -1.927,7.471 c 0,0 11.808,-6.748 22.895,-7.471 -4.579,3.615 -10.604,7.953 -10.604,7.953 0,0 16.388,-7.953 33.982,-6.025 -5.784,2.169 -12.171,1.446 -17.715,9.158 13.015,-5.784 35.308,-3.856 35.308,-3.856 0,0 -16.629,2.651 -22.413,6.266 15.183,-1.446 27.716,2.411 31.331,6.025 -9.882,-1.927 -18.318,-0.722 -24.342,0 13.737,0 24.101,4.098 30.607,11.81 -5.301,-2.169 -14.701,-7.953 -32.053,-5.302 -5.302,1.205 -6.989,5.302 -6.989,5.302 0,0 -5.062,6.748 -9.881,7.712 C 42.145,24.758 48.41,18.974 44.313,12.949 40.376,7.158 27.98,0.033 0.925,2.053 -0.195,2.136 -0.811,0.778 0,0" /></g><g
           transform="translate(410.7764,455.9204)"
           id="g24"><path
             id="path26"
             style="fill:#a35565;fill-opacity:1;fill-rule:nonzero;stroke:none"
             d="m 0,0 c 0,0 5.062,-1.928 8.917,1.446 3.856,3.374 18.317,20.727 18.317,20.727 0,0 8.435,9.881 8.195,-2.169 C 35.188,7.954 28.68,7.23 28.68,7.23 c 0,0 16.147,0.724 12.05,-12.291 -4.097,-13.014 -20.032,-5.784 -20.032,-5.784 0,0 11.356,1.928 9.91,5.543 C 29.162,-1.687 21.69,1.446 14.942,-2.41 8.194,-6.266 5.303,-5.061 0,0" /></g><g
           transform="translate(327.4111,549.9561)"
           id="g28"><path
             id="path30"
             style="fill:#a35565;fill-opacity:1;fill-rule:nonzero;stroke:none"
             d="m 0,0 c -0.097,-0.265 0.282,-0.435 0.413,-0.186 2.822,5.35 10.068,15.688 24.402,17.055 19.457,1.854 26.463,-0.39 28.739,-0.617 2.698,-0.268 9.326,3.83 4.003,7.421 -5.487,3.702 -30.431,2.278 -36.086,1.981 -0.768,-0.04 -1.497,-0.314 -2.1,-0.791 C 16.006,22.196 4.557,12.456 0,0" /></g><g
           transform="translate(437.0459,508.9424)"
           id="g32"><path
             id="path34"
             style="fill:#a35565;fill-opacity:1;fill-rule:nonzero;stroke:none"
             d="m 0,0 c 0,0 -10.604,-4.579 -12.291,-8.436 -1.687,-3.856 1.687,-6.266 3.615,-5.061 C -6.748,-12.292 -11.568,-9.158 0,0" /></g><g
           transform="translate(316.748,422.998)"
           id="g36"><path
             id="path38"
             style="fill:#a35565;fill-opacity:1;fill-rule:nonzero;stroke:none"
             d="M 0,0 C -1.035,0.394 -1.939,-0.848 -1.215,-1.685 0.176,-3.293 1.888,-6.05 3.892,-10.7 9.917,-24.679 15.942,-48.779 8.229,-72.639 0.518,-96.499 -6.954,-116.984 -6.954,-116.984 l 42.659,71.579 c 0,0 7.23,14.461 31.33,20.968 7.713,2.41 54.709,17.352 57.842,23.859 C 120.319,-2.497 32.893,-32.573 3.275,-2.127 2.413,-1.241 1.518,-0.576 0,0" /></g><g
           transform="translate(307.3838,628)"
           id="g40"><path
             id="path42"
             style="fill:#a35565;fill-opacity:1;fill-rule:nonzero;stroke:none"
             d="m 0,0 c 0,0 -23.859,-67.964 22.414,-102.669 46.274,-34.706 -10.122,-101.224 -52.781,-136.651 -42.658,-35.429 -73.025,-49.166 -76.786,-87.975 -1.597,-16.476 13.16,-68.922 55.096,-56.63 -9.4,-7.23 -43.735,-15.913 -69.41,7.953 15.327,-19.121 35.428,-44.104 76.64,-44.104 -19.522,-6.052 -109.176,-11.569 -107.007,65.795 2.169,77.363 82.424,109.899 82.424,109.899 0,0 -133.036,-29.643 -103.392,-168.464 -22.414,9.4 -27.445,85.317 2.169,133.759 -30.367,-14.46 -37.597,-91.824 -37.597,-91.824 0,0 -42.659,99.777 15.184,150.39 57.841,50.611 130.866,39.283 146.05,108.211 -33.018,-35.91 -82.961,-57.217 -109.176,-67.723 -22.957,-9.199 -64.108,-29.684 -73.749,-91.823 -5.061,62.139 -1.446,159.064 99.054,183.647 -37.597,9.858 -92.547,-57.884 -92.547,-57.884 0,0 66.76,146.093 223.414,146.093" /></g><g
           transform="translate(270.75,371.0859)"
           id="g44"><path
             id="path46"
             style="fill:#a35565;fill-opacity:1;fill-rule:nonzero;stroke:none"
             d="m 0,0 c 0,0 -24.101,-66.036 32.295,-94.476 56.396,-28.438 19.04,-75.194 19.04,-75.194 0,0 54.769,41.688 5.061,74.713 C 21.209,-71.58 -3.374,-54.95 0,0" /></g><g
           transform="translate(271.7764,300.7051)"
           id="g48"><path
             id="path50"
             style="fill:#a35565;fill-opacity:1;fill-rule:nonzero;stroke:none"
             d="m 0,0 c 0,0 -12.051,-33.019 16.147,-47.238 27.1,-13.665 10.619,-36.223 9.52,-37.597 0,0 27.385,20.844 2.53,37.356 C 10.604,-35.79 -1.687,-27.476 0,0" /></g></g></g></g></svg>